<svg width="377" height="86" viewBox="0 0 377 86" fill="none" xmlns="http://www.w3.org/2000/svg">
<g filter="url(#filter0_d_1_22)">
<path d="M62.867 34.731C61.5717 33.8377 60.12 33.056 58.512 32.386C56.9487 31.716 55.162 31.381 53.152 31.381C51.0527 31.381 49.4223 31.7383 48.261 32.453C47.0997 33.1677 46.519 34.1057 46.519 35.267C46.519 35.937 46.6977 36.5847 47.055 37.21C47.457 37.7907 48.1493 38.416 49.132 39.086C50.1593 39.756 51.5887 40.56 53.42 41.498C56.4573 43.0167 58.713 44.6023 60.187 46.255C61.661 47.863 62.398 49.8507 62.398 52.218C62.398 54.5853 61.7727 56.5507 60.522 58.114C59.2713 59.6773 57.5963 60.861 55.497 61.665C53.3977 62.4243 51.0303 62.804 48.395 62.804C45.6703 62.804 43.2583 62.469 41.159 61.799C39.1043 61.0843 37.3177 60.1687 35.799 59.052L39.216 54.094C40.422 55.0767 41.8513 55.903 43.504 56.573C45.1567 57.243 46.9657 57.578 48.931 57.578C51.1643 57.578 52.9287 57.1537 54.224 56.305C55.5193 55.4563 56.167 54.4067 56.167 53.156C56.167 51.9947 55.6757 50.9227 54.693 49.94C53.755 48.9573 51.9013 47.7737 49.132 46.389C46.8987 45.2723 45.1567 44.2003 43.906 43.173C42.6553 42.101 41.7843 40.962 41.293 39.756C40.8017 38.55 40.556 37.1653 40.556 35.602C40.556 33.8153 41.092 32.2297 42.164 30.845C43.236 29.4603 44.7323 28.366 46.653 27.562C48.5737 26.758 50.7847 26.356 53.286 26.356C55.7873 26.356 58.0207 26.691 59.986 27.361C61.996 27.9863 63.7603 28.7457 65.279 29.639L62.867 34.731ZM72.2695 27.16C76.9148 27.16 79.2375 29.17 79.2375 33.19V34.597C80.5328 32.185 82.2078 30.2197 84.2625 28.701C86.3172 27.1377 88.7068 26.356 91.4315 26.356C93.8435 26.356 95.9428 26.9813 97.7295 28.232C99.5162 29.438 100.879 31.1353 101.817 33.324C102.799 35.468 103.291 37.9693 103.291 40.828C103.291 44.1333 102.799 47.1483 101.817 49.873C100.879 52.553 99.5832 54.8757 97.9305 56.841C96.2778 58.7617 94.4242 60.2357 92.3695 61.263C90.3148 62.2903 88.1932 62.804 86.0045 62.804C83.8605 62.804 81.8505 62.268 79.9745 61.196C78.1432 60.124 76.7138 58.8063 75.6865 57.243L72.2695 76.74H66.2395L73.2075 36.875C73.3415 36.1157 73.4085 35.4903 73.4085 34.999C73.4085 32.8997 72.3142 31.85 70.1255 31.85L72.2695 27.16ZM85.4685 57.444C87.5678 57.444 89.4885 56.774 91.2305 55.434C93.0172 54.0493 94.4465 52.151 95.5185 49.739C96.5905 47.327 97.1265 44.5577 97.1265 41.431C97.1265 38.3937 96.4342 36.004 95.0495 34.262C93.6648 32.4753 91.8558 31.582 89.6225 31.582C87.8358 31.582 86.1162 32.1403 84.4635 33.257C82.8555 34.3737 81.4708 35.937 80.3095 37.947C79.1482 39.957 78.3218 42.3243 77.8305 45.049L76.6245 51.816C77.6072 53.6027 78.8802 54.9873 80.4435 55.97C82.0068 56.9527 83.6818 57.444 85.4685 57.444ZM108.554 48.265C108.554 43.9323 109.492 40.1357 111.368 36.875C113.289 33.5697 115.924 31.0013 119.274 29.17C122.624 27.294 126.443 26.356 130.731 26.356C133.367 26.356 135.667 26.624 137.632 27.16C139.642 27.696 141.295 28.232 142.59 28.768L138.369 52.553C138.325 52.7763 138.28 53.0443 138.235 53.357C138.235 53.625 138.235 53.9153 138.235 54.228C138.235 55.4787 138.593 56.372 139.307 56.908C140.022 57.3993 140.96 57.645 142.121 57.645L140.044 62.335C137.632 62.335 135.779 61.7543 134.483 60.593C133.233 59.387 132.607 57.5333 132.607 55.032C131.357 57.176 129.771 59.0073 127.85 60.526C125.974 62.0447 123.763 62.804 121.217 62.804C119.029 62.804 116.974 62.2233 115.053 61.062C113.133 59.856 111.569 58.181 110.363 56.037C109.157 53.8483 108.554 51.2577 108.554 48.265ZM135.957 32.319C135.109 32.051 134.215 31.85 133.277 31.716C132.384 31.5373 131.29 31.448 129.994 31.448C126.912 31.448 124.232 32.1403 121.954 33.525C119.676 34.9097 117.89 36.8303 116.594 39.287C115.344 41.699 114.718 44.446 114.718 47.528C114.718 49.672 115.098 51.481 115.857 52.955C116.661 54.429 117.689 55.5457 118.939 56.305C120.19 57.0643 121.485 57.444 122.825 57.444C124.657 57.444 126.332 56.8187 127.85 55.568C129.369 54.3173 130.664 52.5753 131.736 50.342C132.853 48.1087 133.657 45.5627 134.148 42.704L135.957 32.319ZM174.275 34.195C173.159 33.4803 171.953 32.8997 170.657 32.453C169.362 31.9617 167.933 31.716 166.369 31.716C163.913 31.716 161.746 32.3637 159.87 33.659C158.039 34.9543 156.61 36.7187 155.582 38.952C154.555 41.1407 154.041 43.6197 154.041 46.389C154.041 49.7837 154.89 52.486 156.587 54.496C158.329 56.4613 160.652 57.444 163.555 57.444C165.253 57.444 166.749 57.243 168.044 56.841C169.34 56.439 170.523 55.97 171.595 55.434L172.332 60.727C171.216 61.2183 169.853 61.6873 168.245 62.134C166.682 62.5807 164.784 62.804 162.55 62.804C159.647 62.804 157.079 62.1563 154.845 60.861C152.657 59.5657 150.937 57.7567 149.686 55.434C148.48 53.0667 147.877 50.3197 147.877 47.193C147.877 43.441 148.637 40.0017 150.155 36.875C151.719 33.7037 153.907 31.1577 156.721 29.237C159.58 27.3163 162.952 26.356 166.838 26.356C168.938 26.356 170.791 26.624 172.399 27.16C174.052 27.6513 175.504 28.2767 176.754 29.036L174.275 34.195ZM192.721 62.804C189.773 62.804 187.16 62.1787 184.882 60.928C182.649 59.6327 180.885 57.8013 179.589 55.434C178.339 53.022 177.713 50.1857 177.713 46.925C177.713 43.2177 178.473 39.8007 179.991 36.674C181.555 33.5473 183.743 31.046 186.557 29.17C189.416 27.294 192.744 26.356 196.54 26.356C199.131 26.356 201.32 26.8473 203.106 27.83C204.938 28.8127 206.345 30.0857 207.327 31.649C208.31 33.2123 208.801 34.8873 208.801 36.674C208.801 39.1307 208.221 41.163 207.059 42.771C205.898 44.379 204.402 45.6297 202.57 46.523C200.739 47.3717 198.751 47.9747 196.607 48.332C194.508 48.6893 192.498 48.868 190.577 48.868C189.371 48.868 188.165 48.8233 186.959 48.734C185.798 48.6 184.771 48.466 183.877 48.332C184.235 51.28 185.284 53.5357 187.026 55.099C188.768 56.6623 191.002 57.444 193.726 57.444C195.96 57.444 197.947 57.1537 199.689 56.573C201.431 55.9923 202.905 55.4117 204.111 54.831L204.647 60.191C203.307 60.8163 201.61 61.4193 199.555 62C197.501 62.536 195.223 62.804 192.721 62.804ZM196.071 31.448C193.972 31.448 192.074 31.984 190.376 33.056C188.679 34.0833 187.272 35.5127 186.155 37.344C185.083 39.1307 184.369 41.1853 184.011 43.508C185.039 43.6867 186.066 43.843 187.093 43.977C188.165 44.0663 189.327 44.111 190.577 44.111C194.329 44.111 197.3 43.5973 199.488 42.57C201.677 41.498 202.771 39.689 202.771 37.143C202.771 35.5797 202.146 34.2397 200.895 33.123C199.689 32.0063 198.081 31.448 196.071 31.448ZM246.159 39.22C246.159 42.57 245.578 45.6743 244.417 48.533C243.256 51.3917 241.603 53.893 239.459 56.037C237.36 58.181 234.858 59.856 231.955 61.062C229.052 62.2233 225.88 62.804 222.441 62.804C220.386 62.804 218.488 62.603 216.746 62.201C215.004 61.8437 213.552 61.3747 212.391 60.794L220.9 12.42H226.93L223.111 34.195C224.406 31.8277 226.059 29.9293 228.069 28.5C230.124 27.0707 232.424 26.356 234.97 26.356C237.114 26.356 239.012 26.892 240.665 27.964C242.362 29.036 243.702 30.5547 244.685 32.52C245.668 34.4407 246.159 36.674 246.159 39.22ZM233.429 31.582C231.821 31.582 230.168 32.1403 228.471 33.257C226.774 34.3737 225.21 36.2497 223.781 38.885C222.352 41.4757 221.235 45.0043 220.431 49.471L219.091 56.908C219.806 57.0867 220.543 57.2207 221.302 57.31C222.106 57.3993 222.955 57.444 223.848 57.444C226.93 57.444 229.677 56.6847 232.089 55.166C234.546 53.6027 236.466 51.5033 237.851 48.868C239.28 46.2327 239.995 43.2847 239.995 40.024C239.995 37.4333 239.392 35.3787 238.186 33.86C236.98 32.3413 235.394 31.582 233.429 31.582ZM256.225 36.942C256.27 36.7187 256.292 36.473 256.292 36.205C256.337 35.8923 256.359 35.5797 256.359 35.267C256.359 34.0163 256.002 33.1453 255.287 32.654C254.573 32.118 253.635 31.85 252.473 31.85L254.55 27.16C256.918 27.16 258.727 27.7407 259.977 28.902C261.273 30.0187 261.92 31.6937 261.92 33.927V35.267C263.216 32.0957 264.868 29.8177 266.878 28.433C268.933 27.0483 271.256 26.356 273.846 26.356C274.874 26.356 275.745 26.4453 276.459 26.624C277.219 26.758 277.844 26.9367 278.335 27.16L275.655 33.056C275.119 32.8327 274.561 32.6763 273.98 32.587C273.4 32.4977 272.73 32.453 271.97 32.453C270.362 32.453 268.754 33.0337 267.146 34.195C265.583 35.3117 264.154 37.1877 262.858 39.823C261.608 42.4583 260.58 46.0763 259.776 50.677L257.833 62H251.803L256.225 36.942ZM293.444 62.804C290.139 62.804 287.28 62.134 284.868 60.794C282.456 59.454 280.58 57.6003 279.24 55.233C277.945 52.821 277.297 50.0963 277.297 47.059C277.297 43.173 278.079 39.6667 279.642 36.54C281.25 33.4133 283.484 30.9343 286.342 29.103C289.201 27.2717 292.573 26.356 296.459 26.356C299.765 26.356 302.623 27.026 305.035 28.366C307.447 29.706 309.301 31.5597 310.596 33.927C311.936 36.2943 312.606 39.019 312.606 42.101C312.606 45.9423 311.825 49.4487 310.261 52.62C308.698 55.7467 306.465 58.2257 303.561 60.057C300.703 61.8883 297.33 62.804 293.444 62.804ZM293.645 57.444C296.325 57.444 298.603 56.7963 300.479 55.501C302.4 54.161 303.874 52.3743 304.901 50.141C305.929 47.9077 306.442 45.4063 306.442 42.637C306.442 40.5823 306.04 38.751 305.236 37.143C304.432 35.4903 303.271 34.1727 301.752 33.19C300.234 32.2073 298.402 31.716 296.258 31.716C293.623 31.716 291.345 32.386 289.424 33.726C287.504 35.0213 286.03 36.7857 285.002 39.019C283.975 41.2523 283.461 43.7537 283.461 46.523C283.461 48.533 283.863 50.3643 284.667 52.017C285.471 53.6697 286.633 54.9873 288.151 55.97C289.67 56.9527 291.501 57.444 293.645 57.444Z" fill="white"/>
</g>
<path d="M328.107 66.757L323.149 65.082L342.043 10.209L347.001 11.884L328.107 66.757Z" fill="#07EDF8"/>
<path d="M347.256 61.362L344.241 56.605L361.594 46.019L344.241 35.366L347.189 30.676L368.629 44.143V47.962L347.256 61.362Z" fill="#FC2EB1"/>
<path d="M28.944 61.362L7.571 47.962V44.143L29.011 30.676L31.959 35.366L14.606 46.019L31.959 56.605L28.944 61.362Z" fill="#FC2EB1"/>
<defs>
<filter id="filter0_d_1_22" x="31.799" y="12.42" width="284.807" height="72.32" filterUnits="userSpaceOnUse" color-interpolation-filters="sRGB">
<feFlood flood-opacity="0" result="BackgroundImageFix"/>
<feColorMatrix in="SourceAlpha" type="matrix" values="0 0 0 0 0 0 0 0 0 0 0 0 0 0 0 0 0 0 127 0" result="hardAlpha"/>
<feOffset dy="4"/>
<feGaussianBlur stdDeviation="2"/>
<feComposite in2="hardAlpha" operator="out"/>
<feColorMatrix type="matrix" values="0 0 0 0 0 0 0 0 0 0 0 0 0 0 0 0 0 0 0.05 0"/>
<feBlend mode="normal" in2="BackgroundImageFix" result="effect1_dropShadow_1_22"/>
<feBlend mode="normal" in="SourceGraphic" in2="effect1_dropShadow_1_22" result="shape"/>
</filter>
</defs>
</svg>
