<svg width="440" height="78" viewBox="0 0 440 78" fill="none" xmlns="http://www.w3.org/2000/svg">
<path d="M36.3709 17.4667L12.3653 38.975L36.3709 60H21.2667L1.8125 42.9222C0.604167 41.9287 0 40.613 0 38.975C0 38.2232 0.147685 37.5116 0.443056 36.8403C0.765278 36.169 1.19491 35.5917 1.73195 35.1083L21.4278 17.4667H36.3709Z" fill="#FC2EB1"/>
<path d="M73.4667 2L37.0153 59.7584H25.7778L62.2695 2H73.4667Z" fill="#07EDF8"/>
<path d="M79.3472 17.4667L99.0834 35.1083C99.6204 35.5917 100.037 36.169 100.332 36.8403C100.654 37.5116 100.815 38.2232 100.815 38.975C100.815 39.7537 100.654 40.4921 100.332 41.1903C100.01 41.8616 99.5667 42.4389 99.0028 42.9222L79.5084 60H64.4445L88.45 38.975L64.4445 17.4667H79.3472Z" fill="#FC2EB1"/>
<path d="M161.759 49.1284C161.759 50.4588 161.59 51.6602 161.253 52.7324C160.915 53.7848 160.469 54.7181 159.913 55.5322C159.357 56.3265 158.711 57.0116 157.977 57.5874C157.242 58.1434 156.467 58.6001 155.653 58.9575C154.859 59.3149 154.045 59.583 153.211 59.7617C152.397 59.9206 151.622 60 150.888 60H129.919V52.2559H150.828C151.881 52.2559 152.675 51.9878 153.211 51.4517C153.747 50.9155 154.015 50.1411 154.015 49.1284C153.916 47.0633 152.873 46.0308 150.888 46.0308H138.884C137.177 46.0308 135.727 45.7329 134.536 45.1372C133.344 44.5415 132.371 43.7969 131.617 42.9033C130.882 42.0098 130.346 41.0467 130.008 40.0142C129.691 38.9816 129.532 38.0186 129.532 37.125C129.532 35.3975 129.84 33.9479 130.455 32.7764C131.071 31.585 131.845 30.6219 132.778 29.8872C133.712 29.1525 134.724 28.6263 135.816 28.3086C136.909 27.971 137.931 27.8022 138.884 27.8022H157.917V35.5464H138.944C138.547 35.5464 138.229 35.596 137.991 35.6953C137.772 35.7747 137.604 35.8939 137.484 36.0527C137.385 36.1917 137.326 36.3506 137.306 36.5293C137.286 36.6882 137.276 36.847 137.276 37.0059C137.296 37.3236 137.355 37.5718 137.455 37.7505C137.554 37.9292 137.673 38.0583 137.812 38.1377C137.971 38.2171 138.14 38.2668 138.318 38.2866C138.517 38.2866 138.706 38.2866 138.884 38.2866H150.888C152.873 38.2866 154.561 38.644 155.951 39.3589C157.341 40.0737 158.463 40.9772 159.317 42.0693C160.171 43.1416 160.786 44.3132 161.164 45.584C161.561 46.8548 161.759 48.0363 161.759 49.1284ZM202.714 49.1284C202.714 50.4588 202.545 51.6602 202.208 52.7324C201.87 53.7848 201.423 54.7181 200.867 55.5322C200.311 56.3265 199.666 57.0116 198.931 57.5874C198.196 58.1434 197.422 58.6001 196.608 58.9575C195.814 59.3149 195.009 59.583 194.195 59.7617C193.381 59.9206 192.607 60 191.872 60H177.903V52.2559H191.872C192.905 52.2559 193.679 51.9878 194.195 51.4517C194.712 50.9155 194.97 50.1411 194.97 49.1284V38.7036C194.97 37.6313 194.702 36.8371 194.166 36.3208C193.649 35.8045 192.885 35.5464 191.872 35.5464H177.962C176.91 35.5464 176.116 35.8145 175.58 36.3506C175.043 36.8669 174.775 37.6313 174.775 38.644V70.0674H167.031V38.644C167.031 37.3136 167.2 36.1222 167.538 35.0698C167.875 34.0174 168.322 33.0941 168.878 32.2998C169.454 31.4857 170.109 30.8006 170.844 30.2446C171.578 29.6688 172.343 29.2021 173.137 28.8447C173.951 28.4873 174.765 28.2292 175.58 28.0703C176.414 27.8916 177.188 27.8022 177.903 27.8022H191.872C193.202 27.8022 194.394 27.971 195.446 28.3086C196.499 28.6462 197.422 29.0929 198.216 29.6489C199.03 30.2049 199.715 30.8503 200.271 31.585C200.847 32.3197 201.314 33.0941 201.671 33.9082C202.029 34.7025 202.287 35.5067 202.446 36.3208C202.625 37.1349 202.714 37.9093 202.714 38.644V49.1284ZM242.566 49.3369C242.566 50.4092 242.378 51.5708 242 52.8218C241.623 54.0529 241.008 55.2046 240.154 56.2769C239.32 57.3293 238.218 58.2129 236.848 58.9277C235.497 59.6426 233.849 60 231.903 60H217.934C216.862 60 215.7 59.8114 214.449 59.4341C213.218 59.0568 212.066 58.4512 210.994 57.6172C209.942 56.7633 209.058 55.6613 208.343 54.311C207.628 52.9409 207.271 51.2829 207.271 49.3369C207.271 48.2646 207.46 47.103 207.837 45.8521C208.214 44.6011 208.82 43.4494 209.654 42.397C210.508 41.3247 211.61 40.4312 212.96 39.7163C214.33 39.0015 215.988 38.644 217.934 38.644H231.903V46.0308H217.934C216.882 46.0308 216.068 46.3584 215.492 47.0137C214.916 47.6491 214.628 48.4434 214.628 49.3965C214.628 50.4092 214.956 51.2035 215.611 51.7793C216.286 52.3353 217.08 52.6133 217.994 52.6133H231.903C232.956 52.6133 233.77 52.2956 234.346 51.6602C234.922 51.0247 235.209 50.2305 235.209 49.2773V38.4653C235.209 37.4526 234.892 36.6484 234.256 36.0527C233.641 35.457 232.856 35.1592 231.903 35.1592H214.896V27.8022H231.903C232.976 27.8022 234.127 27.9909 235.358 28.3682C236.609 28.7454 237.761 29.361 238.813 30.2148C239.886 31.0488 240.779 32.1509 241.494 33.521C242.209 34.8713 242.566 36.5194 242.566 38.4653V49.3369ZM280.364 60H259.365C258.293 60 257.121 59.8114 255.851 59.4341C254.58 59.0568 253.398 58.4412 252.306 57.5874C251.234 56.7137 250.33 55.5918 249.596 54.2217C248.881 52.8317 248.523 51.134 248.523 49.1284V38.644C248.523 37.9093 248.603 37.1349 248.762 36.3208C248.94 35.5067 249.208 34.7025 249.566 33.9082C249.923 33.0941 250.38 32.3197 250.936 31.585C251.512 30.8503 252.197 30.2049 252.991 29.6489C253.805 29.0929 254.739 28.6462 255.791 28.3086C256.843 27.971 258.035 27.8022 259.365 27.8022H280.364V35.5464H259.365C258.353 35.5464 257.578 35.8045 257.042 36.3208C256.526 36.8371 256.268 37.6313 256.268 38.7036V49.1284C256.268 50.1411 256.536 50.9155 257.072 51.4517C257.608 51.9878 258.392 52.2559 259.425 52.2559H280.364V60ZM321.169 38.4653C321.169 39.5376 320.981 40.6992 320.604 41.9502C320.226 43.1813 319.611 44.333 318.757 45.4053C317.923 46.4577 316.821 47.3413 315.451 48.0562C314.1 48.771 312.452 49.1284 310.506 49.1284H296.537V41.7715H310.506C311.559 41.7715 312.373 41.4538 312.949 40.8184C313.525 40.1631 313.812 39.3589 313.812 38.4058C313.812 37.3931 313.485 36.5988 312.83 36.0229C312.194 35.4471 311.42 35.1592 310.506 35.1592H296.537C295.485 35.1592 294.671 35.4868 294.095 36.1421C293.519 36.7775 293.231 37.5718 293.231 38.5249V49.3369C293.231 50.3695 293.549 51.1737 294.184 51.7495C294.839 52.3254 295.644 52.6133 296.597 52.6133H310.506V60H296.537C295.465 60 294.303 59.8114 293.052 59.4341C291.821 59.0568 290.669 58.4512 289.597 57.6172C288.545 56.7633 287.661 55.6613 286.946 54.311C286.231 52.9409 285.874 51.2829 285.874 49.3369V38.4653C285.874 37.3931 286.063 36.2414 286.44 35.0103C286.817 33.7593 287.423 32.6076 288.257 31.5552C289.111 30.4829 290.213 29.5894 291.563 28.8745C292.933 28.1597 294.591 27.8022 296.537 27.8022H310.506C311.579 27.8022 312.73 27.9909 313.961 28.3682C315.212 28.7454 316.364 29.361 317.417 30.2148C318.489 31.0488 319.382 32.1509 320.097 33.521C320.812 34.8713 321.169 36.5194 321.169 38.4653ZM361.886 49.1284C361.886 49.8631 361.796 50.6375 361.618 51.4517C361.459 52.2658 361.201 53.0799 360.843 53.894C360.486 54.6883 360.019 55.4528 359.443 56.1875C358.887 56.9222 358.202 57.5775 357.388 58.1533C356.594 58.7093 355.671 59.1561 354.618 59.4937C353.566 59.8312 352.374 60 351.044 60H337.075C336.34 60 335.566 59.9206 334.751 59.7617C333.937 59.583 333.123 59.3149 332.309 58.9575C331.515 58.6001 330.75 58.1434 330.016 57.5874C329.281 57.0116 328.626 56.3265 328.05 55.5322C327.494 54.7181 327.047 53.7848 326.709 52.7324C326.372 51.6602 326.203 50.4588 326.203 49.1284V14.1904H333.947V49.1284C333.947 50.0815 334.245 50.846 334.841 51.4219C335.437 51.9779 336.181 52.2559 337.075 52.2559H351.044C352.017 52.2559 352.771 51.9679 353.308 51.3921C353.864 50.8162 354.142 50.0617 354.142 49.1284V38.644C354.142 37.6711 353.854 36.9165 353.278 36.3804C352.702 35.8244 351.957 35.5464 351.044 35.5464H337.075V27.8022H351.044C351.779 27.8022 352.553 27.8916 353.367 28.0703C354.181 28.2292 354.986 28.4873 355.78 28.8447C356.594 29.2021 357.368 29.6688 358.103 30.2446C358.838 30.8006 359.483 31.4857 360.039 32.2998C360.595 33.0941 361.042 34.0174 361.379 35.0698C361.717 36.1222 361.886 37.3136 361.886 38.644V49.1284ZM396.675 35.5464H379.25C378.198 35.5464 377.404 35.8145 376.868 36.3506C376.332 36.8669 376.063 37.6313 376.063 38.644V60H368.319V38.644C368.319 37.3136 368.488 36.1222 368.826 35.0698C369.163 34.0174 369.61 33.0941 370.166 32.2998C370.742 31.4857 371.397 30.8006 372.132 30.2446C372.867 29.6688 373.631 29.2021 374.425 28.8447C375.239 28.4873 376.054 28.2292 376.868 28.0703C377.702 27.8916 378.476 27.8022 379.191 27.8022H396.675V35.5464ZM436.706 49.1284C436.706 50.4588 436.537 51.6602 436.2 52.7324C435.862 53.7848 435.415 54.7181 434.859 55.5322C434.303 56.3265 433.658 57.0116 432.923 57.5874C432.189 58.1434 431.414 58.6001 430.6 58.9575C429.806 59.3149 428.992 59.583 428.158 59.7617C427.344 59.9206 426.569 60 425.834 60H411.865C410.793 60 409.621 59.8114 408.351 59.4341C407.08 59.0568 405.898 58.4412 404.806 57.5874C403.734 56.7137 402.83 55.5918 402.096 54.2217C401.381 52.8317 401.023 51.134 401.023 49.1284V38.644C401.023 36.6584 401.381 34.9805 402.096 33.6104C402.83 32.2204 403.734 31.0985 404.806 30.2446C405.898 29.3709 407.08 28.7454 408.351 28.3682C409.621 27.9909 410.793 27.8022 411.865 27.8022H425.834C427.82 27.8022 429.508 28.1597 430.898 28.8745C432.288 29.5894 433.41 30.4928 434.264 31.585C435.118 32.6572 435.733 33.8288 436.11 35.0996C436.507 36.3704 436.706 37.5519 436.706 38.644V49.1284ZM428.962 38.7036C428.962 37.6313 428.694 36.8371 428.158 36.3208C427.622 35.8045 426.847 35.5464 425.834 35.5464H411.925C410.892 35.5464 410.108 35.8145 409.572 36.3506C409.036 36.8669 408.768 37.6313 408.768 38.644V49.1284C408.768 50.1411 409.036 50.9155 409.572 51.4517C410.108 51.9878 410.892 52.2559 411.925 52.2559H425.834C426.887 52.2559 427.671 51.9878 428.188 51.4517C428.704 50.9155 428.962 50.1411 428.962 49.1284V38.7036Z" fill="white"/>
</svg>
